<svg width="802" height="747" viewBox="0 0 802 747" fill="none" xmlns="http://www.w3.org/2000/svg">
<g filter="url(#filter0_f_2022_2)">
<path d="M111 133.381C136.918 77.0845 474.994 107.773 571.883 152.38C668.772 196.987 746.918 281.203 721 337.5C695.082 393.797 694.389 624.107 597.5 579.5C442.094 731.817 85.0814 189.678 111 133.381Z" fill="#CA87F4" fill-opacity="0.4"/>
</g>
<g filter="url(#filter1_f_2022_2)">
<path d="M3.53977 226.002C38.3365 150.421 272.455 90.4464 329.264 116.601C386.073 142.755 470.617 264.84 435.82 340.421C401.023 416.002 472.514 614.154 415.705 588C260.277 816.991 -31.257 301.583 3.53977 226.002Z" fill="#BDE0FE"/>
</g>
<defs>
<filter id="filter0_f_2022_2" x="49.6606" y="42.8688" width="736.36" height="623.514" filterUnits="userSpaceOnUse" color-interpolation-filters="sRGB">
<feFlood flood-opacity="0" result="BackgroundImageFix"/>
<feBlend mode="normal" in="SourceGraphic" in2="BackgroundImageFix" result="shape"/>
<feGaussianBlur stdDeviation="30" result="effect1_foregroundBlur_2022_2"/>
</filter>
<filter id="filter1_f_2022_2" x="-99.3174" y="10.3709" width="643.278" height="735.836" filterUnits="userSpaceOnUse" color-interpolation-filters="sRGB">
<feFlood flood-opacity="0" result="BackgroundImageFix"/>
<feBlend mode="normal" in="SourceGraphic" in2="BackgroundImageFix" result="shape"/>
<feGaussianBlur stdDeviation="50" result="effect1_foregroundBlur_2022_2"/>
</filter>
</defs>
</svg>
